<svg width="36" height="30" viewBox="0 0 36 30" fill="none" xmlns="http://www.w3.org/2000/svg">
<path d="M6.66083 18.555L17.2864 0.47577L17.7621 0L32.1938 22.3612L15.3833 21.8854L11.2599 22.044L6.66083 18.555Z" fill="#9EA2A3"/>
<path d="M17.6041 2.37885L17.4456 0.15859L17.9213 0L30.1328 19.5066L22.2033 12.8458L17.6041 2.37885Z" fill="#E2E2E2"/>
<path d="M6.18501 17.2864L0 25.0573L8.72245 24.4229L7.77091 20.2996L6.18501 17.2864Z" fill="#C0C0C0"/>
<path d="M8.72245 24.4229L18.0793 21.4097L6.18501 17.2864L7.77091 20.2996L8.72245 24.4229Z" fill="#E2E2E2"/>
<path d="M11.5768 24.2642C11.5768 24.2642 10.3081 22.3256 10.3081 20.9338C10.3081 19.542 11.5768 17.6034 11.5768 17.6034C11.5768 17.6034 13.0041 19.5188 13.0041 20.9338C13.0041 22.3488 11.5768 24.2642 11.5768 24.2642Z" fill="#50A24F"/>
<path d="M15.1502 23.6301C15.1502 23.6301 13.9561 21.0452 13.9561 19.1895C13.9561 17.3338 15.1502 14.749 15.1502 14.749C15.1502 14.749 16.4936 17.3029 16.4936 19.1895C16.4936 21.0762 15.1502 23.6301 15.1502 23.6301Z" fill="#50A24F"/>
<path d="M7.61252 25.6915L18.5552 17.762L25.2231 10.784L25.8504 10.3082L36.0001 25.6915L18.238 26.9602L7.61252 25.6915Z" fill="#C0C0C0"/>
<path d="M20.7752 24.8985L26.0087 17.6034L25.5435 10.6254L26.0087 10.3082L35.9999 25.6915L18.2378 27.1188L20.7752 24.8985Z" fill="#E2E2E2"/>
<path d="M28.569 29.1714C28.569 29.1714 25.2298 28.0292 25.2298 24.4155C25.2298 20.8018 28.569 15.7683 28.569 15.7683C28.569 15.7683 32.3255 20.7415 32.3255 24.4155C32.3255 28.0895 28.569 29.1714 28.569 29.1714Z" fill="#50A24F"/>
</svg>
